<svg id="Logotyp_-_Desktop" data-name="Logotyp - Desktop" xmlns="http://www.w3.org/2000/svg" xmlns:xlink="http://www.w3.org/1999/xlink" width="135" height="120" viewBox="0 0 135 120">
  <defs>
    <clipPath id="clip-path">
      <rect id="Rectangle_178" data-name="Rectangle 178" width="135" height="120" fill="none"/>
    </clipPath>
  </defs>
  <g id="Group_307" data-name="Group 307" clip-path="url(#clip-path)">
    <path id="Path_427" data-name="Path 427" d="M75.715,0c.806,3.714.461,7.519.576,11.512l-.046,11.7a171,171,0,0,1-3.962,29.669L69.519,64.745c-.945,3.273-1.636,6.639-2.557,9.889l-27.94,0c13.342-14,21.232-28.26,27.779-45.964C69.7,19.754,71.661,9.939,70.094,0Z" transform="translate(-17.663)" fill="#0058a7"/>
    <path id="Path_428" data-name="Path 428" d="M116.4,39.067c4.584,0,8.3-2.737,8.3-6.113s-3.716-6.113-8.3-6.113-8.3,2.737-8.3,6.113,3.716,6.113,8.3,6.113" transform="translate(-48.93 -12.033)" fill="#d90017"/>
    <path id="Path_429" data-name="Path 429" d="M139.933.267c-.806,3.714-.461,7.519-.576,11.512l.046,11.7a171.049,171.049,0,0,0,3.962,29.669l2.764,11.863c.944,3.274,1.636,6.639,2.557,9.889l27.94,0c-13.342-14-21.232-28.26-27.779-45.964-2.9-8.915-4.861-18.729-3.294-28.668Z" transform="translate(-63.078 -0.12)" fill="#ffbf00"/>
    <path id="Path_430" data-name="Path 430" d="M5.407,157.133c2.038-.021,2.412-.021,5.761,0v-6.31l-2.1-.021v-.586s1.726.021,3.847.021c1.185,0,2.391,0,3.577-.021v.586l-2.1.021v13.583l2.1.021v.587c-1.227-.021-2.475-.021-3.7-.021-1.248,0-2.5,0-3.723.021v-.587l2.1-.021v-6.582c-1,.021-2.017.021-3.015.021-1.5,0-2.059,0-2.745-.021v6.582l2.1.021v.587c-1.6-.021-3.348-.021-3.993-.021-1.165,0-2.35,0-3.515.021v-.587l2.121-.021V150.823L0,150.8v-.586c1.227.021,2.454.021,3.681.021,1.269,0,2.537,0,3.827-.021v.586l-2.1.021Z" transform="translate(0 -67.345)" fill="#fff"/>
    <path id="Path_431" data-name="Path 431" d="M39.312,162.313a7.538,7.538,0,0,1-7.362-7.65c0-3.836,2.932-7.776,7.32-7.776a7.716,7.716,0,0,1,.042,15.427m.041-14.819a2.94,2.94,0,0,0-2.724,1.718c-.894,1.614-.957,4.549-.957,5.471,0,2.452.417,7.022,3.723,7.022,2.912,0,3.639-3.437,3.639-7.21,0-2.6-.353-7-3.681-7m-2.225-1.467a1.265,1.265,0,0,1-1.269-1.278,1.258,1.258,0,0,1,2.517-.021,1.264,1.264,0,0,1-1.248,1.3m4.388,0a1.265,1.265,0,0,1-1.269-1.278,1.258,1.258,0,0,1,2.517-.021,1.265,1.265,0,0,1-1.248,1.3" transform="translate(-14.462 -64.33)" fill="#fff"/>
    <path id="Path_432" data-name="Path 432" d="M70.478,159.645c.062,0,1.581.021,3.452.021,1.186,0,2.35,0,3.535-.021v.608l-1.643.021-.042,1.971c-1.643,2.683-4.825,2.829-5.657,2.829a7.221,7.221,0,0,1-7.321-7.5,7.747,7.747,0,0,1,7.466-7.923,6.8,6.8,0,0,1,4.014,1.362l.728-.817.458.231a13.8,13.8,0,0,0-.166,2.012c0,.44.042.88.062,1.321l.125,1.32-.562.126a12.675,12.675,0,0,0-.562-1.949,4.045,4.045,0,0,0-3.681-2.871c-3.057,0-4.118,4-4.118,7.231,0,4.108,1.394,6.813,3.66,6.813a2.5,2.5,0,0,0,2.122-1.195,3.081,3.081,0,0,0,.333-1.719v-1.236l-2.2-.021Z" transform="translate(-28.427 -67.089)" fill="#fff"/>
    <path id="Path_433" data-name="Path 433" d="M92.861,159.725c.208,1.236.77,4.507,4.055,4.507a2.874,2.874,0,0,0,3.182-2.746c0-1.614-1.268-2.054-2.641-2.515l-1.186-.377c-1.351-.482-4.035-1.425-4.035-4.486a4.382,4.382,0,0,1,4.471-4.423,5.834,5.834,0,0,1,3,.922l.6-.65.5.168a22.034,22.034,0,0,0-.125,2.2,13.456,13.456,0,0,0,.125,1.949l-.666.168a9.26,9.26,0,0,0-.458-1.949,3.334,3.334,0,0,0-3.057-2.1A2.442,2.442,0,0,0,94,152.724c0,1.509,1.29,1.949,2.87,2.473l.957.293c1.394.5,4.014,1.446,4.014,4.612a4.815,4.815,0,0,1-4.887,4.946,6.661,6.661,0,0,1-3.6-1.194l-.541.881-.582-.231c.062-.65.1-1.363.1-2.138,0-.839-.083-1.97-.125-2.536Z" transform="translate(-41.74 -67.106)" fill="#fff"/>
    <path id="Path_434" data-name="Path 434" d="M120.146,155.583l6.239,8.825,1.663.021v.587c-1.144-.021-2.287-.021-3.453-.021-1.372,0-2.744,0-4.117.021v-.587l1.83-.021a3.5,3.5,0,0,0-.207-.377c-.229-.4-1.519-2.264-1.81-2.683l-2.641-3.836,3.265-3.94a30.313,30.313,0,0,0,2.121-2.746l-1.914-.021v-.586c.957.021,1.914.021,2.871.021.748,0,1.518,0,2.245-.021v.586l-1.934.021c-.707.755-1.019,1.111-2.309,2.6Zm-2.433,8.825,1.955.021v.587c-1.123-.021-2.246-.021-3.348-.021-1.331,0-2.662,0-3.972.021v-.587l2.1-.021V150.824l-2.017-.021v-.586c1.206.021,2.412.021,3.639.021,1.206,0,2.433,0,3.661-.021v.586l-2.018.021-.083,6.686Z" transform="translate(-50.852 -67.345)" fill="#fff"/>
    <path id="Path_435" data-name="Path 435" d="M147.754,165.073a7.538,7.538,0,0,1-7.362-7.651c0-3.836,2.932-7.776,7.321-7.776a7.716,7.716,0,0,1,.042,15.427m.041-14.819a2.94,2.94,0,0,0-2.724,1.719c-.894,1.614-.957,4.548-.957,5.47,0,2.452.417,7.022,3.723,7.022,2.911,0,3.639-3.437,3.639-7.21,0-2.6-.354-7-3.682-7" transform="translate(-63.546 -67.089)" fill="#fff"/>
    <path id="Path_436" data-name="Path 436" d="M174.8,160.591c0,.5-.021,3.039-.021,3.626h1.332c1.85-.042,3.035-.084,3.847-.734.874-.713,1.019-1.844,1.144-3.06l.083-.692.645.042-.167,2.264c-.042.587-.062,1.174-.1,1.74-.042,1.216-.125,1.258-.79,1.258-1.04,0-6.052-.063-7.176-.063-.707,0-1.414,0-2.121.021-.707,0-1.414,0-2.121.021l.02-.587,2.122-.042c.042-1.384.062-2.075.062-3.815v-5.723c0-2.809-.021-3.207-.062-4.025l-2.142-.021.02-.586c1.186.021,2.392.021,3.578.021,2.017,0,3.515-.021,3.992-.021v.586l-2.142.021Z" transform="translate(-76.652 -67.345)" fill="#fff"/>
    <path id="Path_437" data-name="Path 437" d="M203.421,158.417c.312.88.624,1.782.915,2.683.6,1.8.686,2.054,1.1,3.1l1.643.021v.586c-1.1-.02-2.225-.02-3.348-.02-1.227,0-2.454,0-3.681.02v-.586l1.934-.021-1.394-4.653H196.85l-1.373,4.653h1.976v.607c-.749-.02-1.5-.02-2.246-.02s-1.643,0-2.412.02V164.2h1.684c.5-1.342.894-2.6,1.83-5.618l1.123-3.647c.915-3.081,1.1-3.752,1.455-5.177H200.7q.063.22.125.44c.25.922.416,1.426,1.539,5.01Zm-3.015.461-.4-1.257c-.685-2.138-.894-2.872-1.331-4.318l-1.664,5.575Z" transform="translate(-87.265 -67.141)" fill="#fff"/>
    <path id="Path_438" data-name="Path 438" d="M232.051,159.922c-.021,2.305-.021,2.746.041,5.093h-1.476c-.582-.985-1.039-1.74-2.038-3.311l-6.281-9.936.083,12.64,2.246.021v.586c-.915-.02-1.851-.02-2.766-.02-.79,0-1.6,0-2.391.02v-.586l2.08-.021c-.021-.4-.021-.8-.021-1.2,0-1.718-.021-3.437-.021-5.156,0-2.369.021-4.716.084-7.064a2.216,2.216,0,0,0-.978-.168l-1.144-.021v-.586c.873.021,2.059.021,3.182.021,1.165,0,1.539,0,2.371-.021.583.943,1.332,2.159,1.769,2.851l4.492,7.169.124-9.412-2.329-.021v-.586c.874.021,1.748.021,2.621.021s1.767,0,2.64-.021v.586l-2.1.021c-.021.587-.1,3.438-.1,4.066Z" transform="translate(-99.339 -67.345)" fill="#fff"/>
    <path id="Path_439" data-name="Path 439" d="M54.036,204.407l2.079.021v.587c-1.206-.021-2.433-.021-3.66-.021-1.268,0-2.537,0-3.805.021v-.587l2.1-.021V190.824l-2.1-.021v-.586c1.331.021,2.683.021,4.013.021,1.165,0,2.309,0,3.452-.021v.586l-2.079.021Z" transform="translate(-22.021 -85.278)" fill="#fff"/>
    <path id="Path_440" data-name="Path 440" d="M82.05,199.645c.062,0,1.58.021,3.452.021,1.186,0,2.35,0,3.536-.021v.608l-1.643.021-.042,1.971c-1.643,2.683-4.825,2.829-5.657,2.829a7.221,7.221,0,0,1-7.32-7.5,7.746,7.746,0,0,1,7.466-7.923,6.8,6.8,0,0,1,4.014,1.362l.728-.817.457.231a13.876,13.876,0,0,0-.166,2.012c0,.44.042.88.063,1.321l.125,1.32-.562.126a12.682,12.682,0,0,0-.562-1.949,4.044,4.044,0,0,0-3.681-2.871c-3.058,0-4.118,4-4.118,7.231,0,4.108,1.393,6.813,3.66,6.813a2.494,2.494,0,0,0,2.121-1.195,3.081,3.081,0,0,0,.333-1.719v-1.236l-2.2-.021Z" transform="translate(-33.665 -85.022)" fill="#fff"/>
    <path id="Path_441" data-name="Path 441" d="M110.121,195.606c.312.881.624,1.782.915,2.683.6,1.8.686,2.054,1.1,3.1l1.643.021V202c-1.1-.021-2.225-.021-3.348-.021-1.227,0-2.454,0-3.681.021v-.587l1.934-.021-1.394-4.653h-3.744l-1.372,4.653h1.975V202c-.748-.021-1.5-.021-2.246-.021s-1.643,0-2.412.021v-.608h1.684c.5-1.342.894-2.6,1.83-5.618l1.123-3.647c.915-3.082,1.1-3.753,1.455-5.178h1.81q.062.22.124.44c.25.922.416,1.425,1.539,5.009Zm-3.015.461-.395-1.257c-.686-2.138-.894-2.872-1.332-4.318l-1.663,5.575Zm-2.828-10.04a1.265,1.265,0,0,1-1.269-1.278,1.258,1.258,0,0,1,2.517-.021,1.264,1.264,0,0,1-1.248,1.3m4.388,0a1.265,1.265,0,0,1-1.268-1.278,1.258,1.258,0,0,1,2.516-.021,1.265,1.265,0,0,1-1.247,1.3" transform="translate(-45.034 -82.262)" fill="#fff"/>
    <path id="Path_442" data-name="Path 442" d="M123.734,193.758c-.853-2.222-.915-2.389-1.123-2.934L120.7,190.8v-.587c1.29.021,2.579.021,3.868.021s2.6,0,3.889-.021l-.021.587-2.121.021c.311,1.3.54,2.075,1.455,4.925l2,5.89,2.246-7.232c.707-2.558.894-3.186.977-3.584l-2.225-.021-.021-.587c.811.021,1.643.021,2.454.021.874,0,1.768,0,2.661-.021v.587l-1.913.021-3.327,10.48c-.416,1.384-.666,2.18-1.144,4.171h-1.643c-.769-2.348-.852-2.62-1.517-4.486Z" transform="translate(-54.632 -85.277)" fill="#fff"/>
    <path id="Path_443" data-name="Path 443" d="M154.182,200.591c0,.5-.021,3.039-.021,3.626h1.331c1.851-.042,3.037-.084,3.847-.734.874-.713,1.019-1.844,1.145-3.06l.083-.692.645.042-.166,2.264c-.042.587-.062,1.174-.1,1.74-.042,1.216-.125,1.258-.79,1.258-1.04,0-6.052-.063-7.175-.063-.707,0-1.414,0-2.121.021-.707,0-1.414,0-2.121.021l.02-.587,2.122-.042c.041-1.384.062-2.075.062-3.815v-5.723c0-2.809-.021-3.207-.062-4.025l-2.142-.021.02-.586c1.186.021,2.392.021,3.578.021,2.017,0,3.514-.021,3.992-.021v.586l-2.141.021Z" transform="translate(-67.321 -85.277)" fill="#fff"/>
    <path id="Path_444" data-name="Path 444" d="M178.321,197.484l.083,6.665h1.061c2.017-.021,3.1-.042,3.993-.629,1.06-.713,1.206-1.8,1.414-3.333l.665.021-.166,2.159c-.062,1.111-.1,1.781-.146,2.2-.042.335-.083.4-.749.4-.166,0-.956-.021-1.123-.021-2.371-.021-4.741-.042-7.112-.042-1.1,0-2.183.021-3.265.042v-.608l2.1-.021V190.8l-1.955-.021v-.608c3.847.021,7.882.042,11.522-.1,0,.692,0,1.069.041,1.928l.125,2.159-.623.1c-.458-2.7-1.206-3.375-4.659-3.375l-1.144.021-.062,5.974.811-.042c1.789-.126,2.226-.754,2.371-2.683h.624c-.062.713-.1,1.4-.1,3.9,0,.377,0,1.258.042,2.117h-.624c-.228-2.033-.291-2.473-2.371-2.641Z" transform="translate(-78.295 -85.209)" fill="#fff"/>
  </g>
</svg>
